<svg xmlns="http://www.w3.org/2000/svg" viewBox="0 0 1280 240" width="1280" height="240" role="img" aria-label="Cancer TF Discovery Atlas: 19 lineage-specific transcription factors, 98.76% classifier accuracy, rediscovers HNF1B, GATA3, NKX2-1">
  <defs>
    <linearGradient id="panel" x1="0" y1="0" x2="0" y2="1">
      <stop offset="0%" stop-color="#171730"/>
      <stop offset="100%" stop-color="#101024"/>
    </linearGradient>
    <pattern id="grid" width="32" height="32" patternUnits="userSpaceOnUse">
      <path d="M32 0 L0 0 0 32" fill="none" stroke="#60A5FA" stroke-width="0.5" opacity="0.07"/>
    </pattern>
    <filter id="glow" x="-80%" y="-80%" width="260%" height="260%">
      <feGaussianBlur stdDeviation="2.4" result="b"/>
      <feMerge><feMergeNode in="b"/><feMergeNode in="SourceGraphic"/></feMerge>
    </filter>
    <filter id="blur" x="-80%" y="-80%" width="260%" height="260%">
      <feGaussianBlur stdDeviation="3.2"/>
    </filter>
    <clipPath id="ac0"><rect x="900.0" y="50.6" width="34.8" height="65.0"/></clipPath>
    <clipPath id="ac1"><rect x="934.8" y="50.6" width="34.8" height="65.0"/></clipPath>
    <clipPath id="ac3"><rect x="1004.4" y="50.6" width="34.8" height="65.0"/></clipPath>
    <clipPath id="ac4"><rect x="1039.2" y="50.6" width="34.8" height="65.0"/></clipPath>
    <clipPath id="bc0"><rect x="900.0" y="149.2" width="24.0" height="44.8"/></clipPath>
    <clipPath id="bc1"><rect x="924.0" y="149.2" width="24.0" height="44.8"/></clipPath>
    <style><![CDATA[
      .in-fade { animation: inFade .9s cubic-bezier(.16,1,.3,1) backwards; }
      @keyframes inFade { from { opacity: 0 } }
      .in-up { animation: inUp .9s cubic-bezier(.16,1,.3,1) backwards; }
      @keyframes inUp { from { opacity: 0; transform: translateY(14px) } }
      .in-left { animation: inLeft 1s cubic-bezier(.16,1,.3,1) backwards; }
      @keyframes inLeft { from { opacity: 0; transform: translateX(-26px) } }
      .in-pop { animation: inPop .7s cubic-bezier(.34,1.56,.64,1) backwards; transform-box: fill-box; transform-origin: center; }
      @keyframes inPop { from { opacity: 0; transform: scale(0) } }
      .in-wipe { animation: inWipe 1.2s cubic-bezier(.16,1,.3,1) backwards; transform-box: fill-box; transform-origin: 0 50%; }
      @keyframes inWipe { from { transform: scaleX(0) } }
      .in-wipe-c { animation: inWipe 1.2s cubic-bezier(.16,1,.3,1) backwards; transform-box: fill-box; transform-origin: center; }
      .in-draw { stroke-dasharray: 1; animation: inDraw 1.4s cubic-bezier(.16,1,.3,1) backwards; }
      @keyframes inDraw { from { stroke-dashoffset: 1 } }
      .blink { animation: blink 1.1s steps(1) infinite; }
      @keyframes blink { 50% { opacity: 0 } }
      @media (prefers-reduced-motion: reduce) {
        *, *::before { animation: none !important; }
        .smil { display: none; }
        .rm-show { display: inline !important; }
      }
      .roll { animation-name: roll; animation-timing-function: cubic-bezier(.16,1,.3,1); animation-fill-mode: backwards; }
      @keyframes roll { from { transform: translateY(0) } }
      .cell { animation: cell 3.8s ease-in-out infinite; }
      @keyframes cell { 0%,100% { opacity: .15 } 50% { opacity: .85 } }
    ]]></style>
  </defs>
  <rect width="1280" height="240" rx="16" fill="#07070F"/>
  <rect width="1280" height="240" rx="16" fill="url(#grid)"/>
  <g class="in-fade"><text x="40" y="38" fill="#F59E0B" font-size="11" text-anchor="start" font-family="'SFMono-Regular',Menlo,'DejaVu Sans Mono','Liberation Mono',Consolas,monospace" letter-spacing="2">P.03</text><text x="80.4" y="38" fill="#6E6E8E" font-size="11" text-anchor="start" font-family="'SFMono-Regular',Menlo,'DejaVu Sans Mono','Liberation Mono',Consolas,monospace" letter-spacing="2">CANCER TF DISCOVERY ATLAS</text></g>
  <rect class="in-fade" style="animation-delay:0.2s" x="860" y="28" width="1" height="184" fill="#60A5FA" fill-opacity=".25"/>
  <ellipse class="in-fade" style="animation-delay:0.2s" cx="250" cy="140" rx="150" ry="40" fill="none" stroke="#60A5FA" stroke-opacity=".16" transform="rotate(-12 250 140)"/>
  <ellipse class="in-fade" style="animation-delay:0.32s" cx="250" cy="140" rx="130" ry="50" fill="none" stroke="#60A5FA" stroke-opacity=".16" transform="rotate(20 250 140)"/>
  <ellipse class="in-fade" style="animation-delay:0.44s" cx="250" cy="140" rx="80" ry="34" fill="none" stroke="#60A5FA" stroke-opacity=".16" transform="rotate(60 250 140)"/>
  <ellipse class="in-fade" style="animation-delay:0.56s" cx="250" cy="140" rx="160" ry="28" fill="none" stroke="#60A5FA" stroke-opacity=".16" transform="rotate(-22 250 140)"/>
  <circle cx="250" cy="140" r="20" fill="#60A5FA" fill-opacity=".08"/><circle cx="250" cy="140" r="4" fill="#93C5FD" filter="url(#glow)"/>
  <g transform="rotate(-12 250 140)"><g class="smil"><animateMotion dur="26s" begin="-0.00s" repeatCount="indefinite" path="M250 180 A150 40 0 1 1 250 100 A150 40 0 1 1 250 180"/><animate attributeName="opacity" dur="26s" begin="-0.00s" repeatCount="indefinite" values="1;.25;1"/><g transform="rotate(12)"><circle r="4.4" fill="#FBBF24" filter="url(#glow)"/><text x="8" y="4" fill="#FBBF24" font-size="11" text-anchor="start" font-family="'SFMono-Regular',Menlo,'DejaVu Sans Mono','Liberation Mono',Consolas,monospace" >HNF1B</text></g></g></g>
  <g transform="rotate(-12 250 140)"><g class="smil"><animateMotion dur="26s" begin="-5.20s" repeatCount="indefinite" path="M250 180 A150 40 0 1 1 250 100 A150 40 0 1 1 250 180"/><animate attributeName="opacity" dur="26s" begin="-5.20s" repeatCount="indefinite" values="1;.25;1"/><g transform="rotate(12)"><circle r="3.2" fill="#93C5FD"/></g></g></g>
  <g transform="rotate(-12 250 140)"><g class="smil"><animateMotion dur="26s" begin="-10.40s" repeatCount="indefinite" path="M250 180 A150 40 0 1 1 250 100 A150 40 0 1 1 250 180"/><animate attributeName="opacity" dur="26s" begin="-10.40s" repeatCount="indefinite" values="1;.25;1"/><g transform="rotate(12)"><circle r="3.2" fill="#93C5FD"/></g></g></g>
  <g transform="rotate(-12 250 140)"><g class="smil"><animateMotion dur="26s" begin="-15.60s" repeatCount="indefinite" path="M250 180 A150 40 0 1 1 250 100 A150 40 0 1 1 250 180"/><animate attributeName="opacity" dur="26s" begin="-15.60s" repeatCount="indefinite" values="1;.25;1"/><g transform="rotate(12)"><circle r="3.2" fill="#93C5FD"/></g></g></g>
  <g transform="rotate(-12 250 140)"><g class="smil"><animateMotion dur="26s" begin="-20.80s" repeatCount="indefinite" path="M250 180 A150 40 0 1 1 250 100 A150 40 0 1 1 250 180"/><animate attributeName="opacity" dur="26s" begin="-20.80s" repeatCount="indefinite" values="1;.25;1"/><g transform="rotate(12)"><circle r="3.2" fill="#93C5FD"/></g></g></g>
  <g transform="rotate(20 250 140)"><g class="smil"><animateMotion dur="32s" begin="-0.00s" repeatCount="indefinite" path="M250 190 A130 50 0 1 1 250 90 A130 50 0 1 1 250 190"/><animate attributeName="opacity" dur="32s" begin="-0.00s" repeatCount="indefinite" values="1;.25;1"/><g transform="rotate(-20)"><circle r="3.2" fill="#93C5FD"/></g></g></g>
  <g transform="rotate(20 250 140)"><g class="smil"><animateMotion dur="32s" begin="-6.40s" repeatCount="indefinite" path="M250 190 A130 50 0 1 1 250 90 A130 50 0 1 1 250 190"/><animate attributeName="opacity" dur="32s" begin="-6.40s" repeatCount="indefinite" values="1;.25;1"/><g transform="rotate(-20)"><circle r="3.2" fill="#93C5FD"/></g></g></g>
  <g transform="rotate(20 250 140)"><g class="smil"><animateMotion dur="32s" begin="-12.80s" repeatCount="indefinite" path="M250 190 A130 50 0 1 1 250 90 A130 50 0 1 1 250 190"/><animate attributeName="opacity" dur="32s" begin="-12.80s" repeatCount="indefinite" values="1;.25;1"/><g transform="rotate(-20)"><circle r="4.4" fill="#FBBF24" filter="url(#glow)"/><text x="8" y="4" fill="#FBBF24" font-size="11" text-anchor="start" font-family="'SFMono-Regular',Menlo,'DejaVu Sans Mono','Liberation Mono',Consolas,monospace" >GATA3</text></g></g></g>
  <g transform="rotate(20 250 140)"><g class="smil"><animateMotion dur="32s" begin="-19.20s" repeatCount="indefinite" path="M250 190 A130 50 0 1 1 250 90 A130 50 0 1 1 250 190"/><animate attributeName="opacity" dur="32s" begin="-19.20s" repeatCount="indefinite" values="1;.25;1"/><g transform="rotate(-20)"><circle r="3.2" fill="#93C5FD"/></g></g></g>
  <g transform="rotate(20 250 140)"><g class="smil"><animateMotion dur="32s" begin="-25.60s" repeatCount="indefinite" path="M250 190 A130 50 0 1 1 250 90 A130 50 0 1 1 250 190"/><animate attributeName="opacity" dur="32s" begin="-25.60s" repeatCount="indefinite" values="1;.25;1"/><g transform="rotate(-20)"><circle r="3.2" fill="#93C5FD"/></g></g></g>
  <g transform="rotate(60 250 140)"><g class="smil"><animateMotion dur="22s" begin="-0.00s" repeatCount="indefinite" path="M250 174 A80 34 0 1 1 250 106 A80 34 0 1 1 250 174"/><animate attributeName="opacity" dur="22s" begin="-0.00s" repeatCount="indefinite" values="1;.25;1"/><g transform="rotate(-60)"><circle r="3.2" fill="#93C5FD"/></g></g></g>
  <g transform="rotate(60 250 140)"><g class="smil"><animateMotion dur="22s" begin="-5.50s" repeatCount="indefinite" path="M250 174 A80 34 0 1 1 250 106 A80 34 0 1 1 250 174"/><animate attributeName="opacity" dur="22s" begin="-5.50s" repeatCount="indefinite" values="1;.25;1"/><g transform="rotate(-60)"><circle r="3.2" fill="#93C5FD"/></g></g></g>
  <g transform="rotate(60 250 140)"><g class="smil"><animateMotion dur="22s" begin="-11.00s" repeatCount="indefinite" path="M250 174 A80 34 0 1 1 250 106 A80 34 0 1 1 250 174"/><animate attributeName="opacity" dur="22s" begin="-11.00s" repeatCount="indefinite" values="1;.25;1"/><g transform="rotate(-60)"><circle r="3.2" fill="#93C5FD"/></g></g></g>
  <g transform="rotate(60 250 140)"><g class="smil"><animateMotion dur="22s" begin="-16.50s" repeatCount="indefinite" path="M250 174 A80 34 0 1 1 250 106 A80 34 0 1 1 250 174"/><animate attributeName="opacity" dur="22s" begin="-16.50s" repeatCount="indefinite" values="1;.25;1"/><g transform="rotate(-60)"><circle r="4.4" fill="#FBBF24" filter="url(#glow)"/><text x="8" y="4" fill="#FBBF24" font-size="11" text-anchor="start" font-family="'SFMono-Regular',Menlo,'DejaVu Sans Mono','Liberation Mono',Consolas,monospace" >NKX2-1</text></g></g></g>
  <g transform="rotate(-22 250 140)"><g class="smil"><animateMotion dur="40s" begin="-0.00s" repeatCount="indefinite" path="M250 168 A160 28 0 1 1 250 112 A160 28 0 1 1 250 168"/><animate attributeName="opacity" dur="40s" begin="-0.00s" repeatCount="indefinite" values="1;.25;1"/><g transform="rotate(22)"><circle r="3.2" fill="#93C5FD"/></g></g></g>
  <g transform="rotate(-22 250 140)"><g class="smil"><animateMotion dur="40s" begin="-8.00s" repeatCount="indefinite" path="M250 168 A160 28 0 1 1 250 112 A160 28 0 1 1 250 168"/><animate attributeName="opacity" dur="40s" begin="-8.00s" repeatCount="indefinite" values="1;.25;1"/><g transform="rotate(22)"><circle r="3.2" fill="#93C5FD"/></g></g></g>
  <g transform="rotate(-22 250 140)"><g class="smil"><animateMotion dur="40s" begin="-16.00s" repeatCount="indefinite" path="M250 168 A160 28 0 1 1 250 112 A160 28 0 1 1 250 168"/><animate attributeName="opacity" dur="40s" begin="-16.00s" repeatCount="indefinite" values="1;.25;1"/><g transform="rotate(22)"><circle r="3.2" fill="#93C5FD"/></g></g></g>
  <g transform="rotate(-22 250 140)"><g class="smil"><animateMotion dur="40s" begin="-24.00s" repeatCount="indefinite" path="M250 168 A160 28 0 1 1 250 112 A160 28 0 1 1 250 168"/><animate attributeName="opacity" dur="40s" begin="-24.00s" repeatCount="indefinite" values="1;.25;1"/><g transform="rotate(22)"><circle r="3.2" fill="#93C5FD"/></g></g></g>
  <g transform="rotate(-22 250 140)"><g class="smil"><animateMotion dur="40s" begin="-32.00s" repeatCount="indefinite" path="M250 168 A160 28 0 1 1 250 112 A160 28 0 1 1 250 168"/><animate attributeName="opacity" dur="40s" begin="-32.00s" repeatCount="indefinite" values="1;.25;1"/><g transform="rotate(22)"><circle r="3.2" fill="#93C5FD"/></g></g></g>
  <g class="rm-show" style="display:none"><circle cx="258.3" cy="179.1" r="3.2" fill="#FBBF24"/><circle cx="113.0" cy="181.8" r="3.2" fill="#93C5FD"/><circle cx="157.0" cy="126.7" r="3.2" fill="#93C5FD"/><circle cx="329.5" cy="90.0" r="3.2" fill="#93C5FD"/><circle cx="392.1" cy="122.4" r="3.2" fill="#93C5FD"/><circle cx="232.9" cy="187.0" r="3.2" fill="#93C5FD"/><circle cx="128.5" cy="112.2" r="3.2" fill="#93C5FD"/><circle cx="192.0" cy="75.9" r="3.2" fill="#FBBF24"/><circle cx="335.6" cy="128.1" r="3.2" fill="#93C5FD"/><circle cx="360.9" cy="196.8" r="3.2" fill="#93C5FD"/><circle cx="220.6" cy="157.0" r="3.2" fill="#93C5FD"/><circle cx="210.0" cy="70.7" r="3.2" fill="#93C5FD"/><circle cx="279.4" cy="123.0" r="3.2" fill="#93C5FD"/><circle cx="290.0" cy="209.3" r="3.2" fill="#FBBF24"/><circle cx="260.5" cy="166.0" r="3.2" fill="#93C5FD"/><circle cx="112.2" cy="205.0" r="3.2" fill="#93C5FD"/><circle cx="154.3" cy="154.2" r="3.2" fill="#93C5FD"/><circle cx="328.7" cy="83.8" r="3.2" fill="#93C5FD"/><circle cx="394.3" cy="91.0" r="3.2" fill="#93C5FD"/></g>
  <g class="in-fade" style="animation-delay:0.5s"><text x="520" y="54" fill="#6E6E8E" font-size="10.5" text-anchor="start" font-family="'SFMono-Regular',Menlo,'DejaVu Sans Mono','Liberation Mono',Consolas,monospace" >TCGA RNA-Seq · lineage × TF</text>
<rect class="cell" style="animation-delay:-2.82s" x="520" y="70" width="15" height="15" rx="2" fill="#60A5FA" fill-opacity="0.62"/>
<rect class="cell" style="animation-delay:-3.58s" x="520" y="88" width="15" height="15" rx="2" fill="#60A5FA" fill-opacity="0.73"/>
<rect class="cell" style="animation-delay:-3.50s" x="520" y="106" width="15" height="15" rx="2" fill="#60A5FA" fill-opacity="0.69"/>
<rect class="cell" style="animation-delay:-1.77s" x="520" y="124" width="15" height="15" rx="2" fill="#60A5FA" fill-opacity="0.27"/>
<rect class="cell" style="animation-delay:-2.47s" x="520" y="142" width="15" height="15" rx="2" fill="#60A5FA" fill-opacity="0.82"/>
<rect class="cell" style="animation-delay:-0.43s" x="520" y="160" width="15" height="15" rx="2" fill="#60A5FA" fill-opacity="0.79"/>
<rect class="cell" style="animation-delay:-0.94s" x="520" y="178" width="15" height="15" rx="2" fill="#60A5FA" fill-opacity="0.53"/>
<rect class="cell" style="animation-delay:-2.18s" x="520" y="196" width="15" height="15" rx="2" fill="#60A5FA" fill-opacity="0.58"/>
<rect class="cell" style="animation-delay:-0.82s" x="538" y="70" width="15" height="15" rx="2" fill="#60A5FA" fill-opacity="0.26"/>
<rect class="cell" style="animation-delay:-3.48s" x="538" y="88" width="15" height="15" rx="2" fill="#60A5FA" fill-opacity="0.42"/>
<rect class="cell" style="animation-delay:-0.61s" x="538" y="106" width="15" height="15" rx="2" fill="#60A5FA" fill-opacity="0.71"/>
<rect class="cell" style="animation-delay:-0.53s" x="538" y="124" width="15" height="15" rx="2" fill="#60A5FA" fill-opacity="0.73"/>
<rect class="cell" style="animation-delay:-0.48s" x="538" y="142" width="15" height="15" rx="2" fill="#60A5FA" fill-opacity="0.62"/>
<rect class="cell" style="animation-delay:-3.31s" x="538" y="160" width="15" height="15" rx="2" fill="#60A5FA" fill-opacity="0.25"/>
<rect class="cell" style="animation-delay:-0.82s" x="538" y="178" width="15" height="15" rx="2" fill="#60A5FA" fill-opacity="0.38"/>
<rect class="cell" style="animation-delay:-3.32s" x="538" y="196" width="15" height="15" rx="2" fill="#60A5FA" fill-opacity="0.84"/>
<rect class="cell" style="animation-delay:-3.65s" x="556" y="70" width="15" height="15" rx="2" fill="#60A5FA" fill-opacity="0.42"/>
<rect class="cell" style="animation-delay:-2.58s" x="556" y="88" width="15" height="15" rx="2" fill="#60A5FA" fill-opacity="0.57"/>
<rect class="cell" style="animation-delay:-3.58s" x="556" y="106" width="15" height="15" rx="2" fill="#60A5FA" fill-opacity="0.37"/>
<rect class="cell" style="animation-delay:-3.67s" x="556" y="124" width="15" height="15" rx="2" fill="#60A5FA" fill-opacity="0.66"/>
<rect class="cell" style="animation-delay:-1.14s" x="556" y="142" width="15" height="15" rx="2" fill="#60A5FA" fill-opacity="0.79"/>
<rect class="cell" style="animation-delay:-0.63s" x="556" y="160" width="15" height="15" rx="2" fill="#60A5FA" fill-opacity="0.47"/>
<rect class="cell" style="animation-delay:-0.25s" x="556" y="178" width="15" height="15" rx="2" fill="#60A5FA" fill-opacity="0.34"/>
<rect class="cell" style="animation-delay:-2.29s" x="556" y="196" width="15" height="15" rx="2" fill="#60A5FA" fill-opacity="0.43"/>
<rect class="cell" style="animation-delay:-2.58s" x="574" y="70" width="15" height="15" rx="2" fill="#60A5FA" fill-opacity="0.25"/>
<rect class="cell" style="animation-delay:-1.18s" x="574" y="88" width="15" height="15" rx="2" fill="#60A5FA" fill-opacity="0.45"/>
<rect class="cell" style="animation-delay:-1.83s" x="574" y="106" width="15" height="15" rx="2" fill="#F59E0B" fill-opacity="0.74"/>
<rect class="cell" style="animation-delay:-1.83s" x="574" y="124" width="15" height="15" rx="2" fill="#60A5FA" fill-opacity="0.44"/>
<rect class="cell" style="animation-delay:-0.22s" x="574" y="142" width="15" height="15" rx="2" fill="#60A5FA" fill-opacity="0.67"/>
<rect class="cell" style="animation-delay:-0.09s" x="574" y="160" width="15" height="15" rx="2" fill="#F59E0B" fill-opacity="0.84"/>
<rect class="cell" style="animation-delay:-3.21s" x="574" y="178" width="15" height="15" rx="2" fill="#60A5FA" fill-opacity="0.70"/>
<rect class="cell" style="animation-delay:-2.99s" x="574" y="196" width="15" height="15" rx="2" fill="#60A5FA" fill-opacity="0.26"/>
<rect class="cell" style="animation-delay:-2.20s" x="592" y="70" width="15" height="15" rx="2" fill="#60A5FA" fill-opacity="0.47"/>
<rect class="cell" style="animation-delay:-0.18s" x="592" y="88" width="15" height="15" rx="2" fill="#60A5FA" fill-opacity="0.26"/>
<rect class="cell" style="animation-delay:-3.63s" x="592" y="106" width="15" height="15" rx="2" fill="#60A5FA" fill-opacity="0.36"/>
<rect class="cell" style="animation-delay:-2.87s" x="592" y="124" width="15" height="15" rx="2" fill="#60A5FA" fill-opacity="0.37"/>
<rect class="cell" style="animation-delay:-3.58s" x="592" y="142" width="15" height="15" rx="2" fill="#60A5FA" fill-opacity="0.81"/>
<rect class="cell" style="animation-delay:-1.35s" x="592" y="160" width="15" height="15" rx="2" fill="#60A5FA" fill-opacity="0.46"/>
<rect class="cell" style="animation-delay:-2.95s" x="592" y="178" width="15" height="15" rx="2" fill="#60A5FA" fill-opacity="0.56"/>
<rect class="cell" style="animation-delay:-2.84s" x="592" y="196" width="15" height="15" rx="2" fill="#60A5FA" fill-opacity="0.31"/>
<rect class="cell" style="animation-delay:-3.27s" x="610" y="70" width="15" height="15" rx="2" fill="#60A5FA" fill-opacity="0.73"/>
<rect class="cell" style="animation-delay:-3.59s" x="610" y="88" width="15" height="15" rx="2" fill="#60A5FA" fill-opacity="0.27"/>
<rect class="cell" style="animation-delay:-1.29s" x="610" y="106" width="15" height="15" rx="2" fill="#60A5FA" fill-opacity="0.30"/>
<rect class="cell" style="animation-delay:-3.49s" x="610" y="124" width="15" height="15" rx="2" fill="#60A5FA" fill-opacity="0.62"/>
<rect class="cell" style="animation-delay:-3.51s" x="610" y="142" width="15" height="15" rx="2" fill="#60A5FA" fill-opacity="0.45"/>
<rect class="cell" style="animation-delay:-1.19s" x="610" y="160" width="15" height="15" rx="2" fill="#60A5FA" fill-opacity="0.58"/>
<rect class="cell" style="animation-delay:-0.67s" x="610" y="178" width="15" height="15" rx="2" fill="#60A5FA" fill-opacity="0.44"/>
<rect class="cell" style="animation-delay:-0.57s" x="610" y="196" width="15" height="15" rx="2" fill="#60A5FA" fill-opacity="0.30"/>
<rect class="cell" style="animation-delay:-3.79s" x="628" y="70" width="15" height="15" rx="2" fill="#60A5FA" fill-opacity="0.66"/>
<rect class="cell" style="animation-delay:-0.18s" x="628" y="88" width="15" height="15" rx="2" fill="#60A5FA" fill-opacity="0.35"/>
<rect class="cell" style="animation-delay:-2.03s" x="628" y="106" width="15" height="15" rx="2" fill="#60A5FA" fill-opacity="0.84"/>
<rect class="cell" style="animation-delay:-0.90s" x="628" y="124" width="15" height="15" rx="2" fill="#60A5FA" fill-opacity="0.49"/>
<rect class="cell" style="animation-delay:-3.14s" x="628" y="142" width="15" height="15" rx="2" fill="#60A5FA" fill-opacity="0.61"/>
<rect class="cell" style="animation-delay:-1.60s" x="628" y="160" width="15" height="15" rx="2" fill="#60A5FA" fill-opacity="0.52"/>
<rect class="cell" style="animation-delay:-3.48s" x="628" y="178" width="15" height="15" rx="2" fill="#60A5FA" fill-opacity="0.28"/>
<rect class="cell" style="animation-delay:-1.88s" x="628" y="196" width="15" height="15" rx="2" fill="#60A5FA" fill-opacity="0.27"/>
<rect class="cell" style="animation-delay:-0.50s" x="646" y="70" width="15" height="15" rx="2" fill="#60A5FA" fill-opacity="0.75"/>
<rect class="cell" style="animation-delay:-3.61s" x="646" y="88" width="15" height="15" rx="2" fill="#60A5FA" fill-opacity="0.69"/>
<rect class="cell" style="animation-delay:-2.99s" x="646" y="106" width="15" height="15" rx="2" fill="#60A5FA" fill-opacity="0.63"/>
<rect class="cell" style="animation-delay:-1.65s" x="646" y="124" width="15" height="15" rx="2" fill="#60A5FA" fill-opacity="0.31"/>
<rect class="cell" style="animation-delay:-3.21s" x="646" y="142" width="15" height="15" rx="2" fill="#60A5FA" fill-opacity="0.34"/>
<rect class="cell" style="animation-delay:-1.72s" x="646" y="160" width="15" height="15" rx="2" fill="#60A5FA" fill-opacity="0.43"/>
<rect class="cell" style="animation-delay:-3.24s" x="646" y="178" width="15" height="15" rx="2" fill="#60A5FA" fill-opacity="0.85"/>
<rect class="cell" style="animation-delay:-1.72s" x="646" y="196" width="15" height="15" rx="2" fill="#60A5FA" fill-opacity="0.84"/>
<rect class="cell" style="animation-delay:-2.77s" x="664" y="70" width="15" height="15" rx="2" fill="#60A5FA" fill-opacity="0.54"/>
<rect class="cell" style="animation-delay:-1.11s" x="664" y="88" width="15" height="15" rx="2" fill="#60A5FA" fill-opacity="0.54"/>
<rect class="cell" style="animation-delay:-0.56s" x="664" y="106" width="15" height="15" rx="2" fill="#60A5FA" fill-opacity="0.49"/>
<rect class="cell" style="animation-delay:-3.76s" x="664" y="124" width="15" height="15" rx="2" fill="#60A5FA" fill-opacity="0.48"/>
<rect class="cell" style="animation-delay:-2.38s" x="664" y="142" width="15" height="15" rx="2" fill="#60A5FA" fill-opacity="0.83"/>
<rect class="cell" style="animation-delay:-1.29s" x="664" y="160" width="15" height="15" rx="2" fill="#60A5FA" fill-opacity="0.55"/>
<rect class="cell" style="animation-delay:-1.03s" x="664" y="178" width="15" height="15" rx="2" fill="#60A5FA" fill-opacity="0.30"/>
<rect class="cell" style="animation-delay:-3.30s" x="664" y="196" width="15" height="15" rx="2" fill="#60A5FA" fill-opacity="0.72"/>
<rect class="cell" style="animation-delay:-2.99s" x="682" y="70" width="15" height="15" rx="2" fill="#60A5FA" fill-opacity="0.47"/>
<rect class="cell" style="animation-delay:-2.64s" x="682" y="88" width="15" height="15" rx="2" fill="#60A5FA" fill-opacity="0.71"/>
<rect class="cell" style="animation-delay:-2.89s" x="682" y="106" width="15" height="15" rx="2" fill="#F59E0B" fill-opacity="0.65"/>
<rect class="cell" style="animation-delay:-2.68s" x="682" y="124" width="15" height="15" rx="2" fill="#60A5FA" fill-opacity="0.47"/>
<rect class="cell" style="animation-delay:-1.85s" x="682" y="142" width="15" height="15" rx="2" fill="#60A5FA" fill-opacity="0.42"/>
<rect class="cell" style="animation-delay:-2.63s" x="682" y="160" width="15" height="15" rx="2" fill="#F59E0B" fill-opacity="0.71"/>
<rect class="cell" style="animation-delay:-3.59s" x="682" y="178" width="15" height="15" rx="2" fill="#60A5FA" fill-opacity="0.43"/>
<rect class="cell" style="animation-delay:-2.21s" x="682" y="196" width="15" height="15" rx="2" fill="#60A5FA" fill-opacity="0.64"/>
<rect class="cell" style="animation-delay:-2.08s" x="700" y="70" width="15" height="15" rx="2" fill="#60A5FA" fill-opacity="0.26"/>
<rect class="cell" style="animation-delay:-2.55s" x="700" y="88" width="15" height="15" rx="2" fill="#60A5FA" fill-opacity="0.40"/>
<rect class="cell" style="animation-delay:-3.10s" x="700" y="106" width="15" height="15" rx="2" fill="#60A5FA" fill-opacity="0.53"/>
<rect class="cell" style="animation-delay:-3.03s" x="700" y="124" width="15" height="15" rx="2" fill="#60A5FA" fill-opacity="0.64"/>
<rect class="cell" style="animation-delay:-2.45s" x="700" y="142" width="15" height="15" rx="2" fill="#60A5FA" fill-opacity="0.46"/>
<rect class="cell" style="animation-delay:-3.15s" x="700" y="160" width="15" height="15" rx="2" fill="#60A5FA" fill-opacity="0.69"/>
<rect class="cell" style="animation-delay:-3.20s" x="700" y="178" width="15" height="15" rx="2" fill="#60A5FA" fill-opacity="0.46"/>
<rect class="cell" style="animation-delay:-2.62s" x="700" y="196" width="15" height="15" rx="2" fill="#60A5FA" fill-opacity="0.77"/>
<rect class="cell" style="animation-delay:-3.63s" x="718" y="70" width="15" height="15" rx="2" fill="#60A5FA" fill-opacity="0.84"/>
<rect class="cell" style="animation-delay:-2.01s" x="718" y="88" width="15" height="15" rx="2" fill="#60A5FA" fill-opacity="0.56"/>
<rect class="cell" style="animation-delay:-3.18s" x="718" y="106" width="15" height="15" rx="2" fill="#60A5FA" fill-opacity="0.35"/>
<rect class="cell" style="animation-delay:-1.81s" x="718" y="124" width="15" height="15" rx="2" fill="#60A5FA" fill-opacity="0.81"/>
<rect class="cell" style="animation-delay:-2.73s" x="718" y="142" width="15" height="15" rx="2" fill="#60A5FA" fill-opacity="0.66"/>
<rect class="cell" style="animation-delay:-0.65s" x="718" y="160" width="15" height="15" rx="2" fill="#60A5FA" fill-opacity="0.69"/>
<rect class="cell" style="animation-delay:-2.21s" x="718" y="178" width="15" height="15" rx="2" fill="#60A5FA" fill-opacity="0.72"/>
<rect class="cell" style="animation-delay:-1.60s" x="718" y="196" width="15" height="15" rx="2" fill="#60A5FA" fill-opacity="0.65"/>
<rect class="cell" style="animation-delay:-2.94s" x="736" y="70" width="15" height="15" rx="2" fill="#60A5FA" fill-opacity="0.62"/>
<rect class="cell" style="animation-delay:-2.74s" x="736" y="88" width="15" height="15" rx="2" fill="#60A5FA" fill-opacity="0.63"/>
<rect class="cell" style="animation-delay:-0.61s" x="736" y="106" width="15" height="15" rx="2" fill="#60A5FA" fill-opacity="0.27"/>
<rect class="cell" style="animation-delay:-2.47s" x="736" y="124" width="15" height="15" rx="2" fill="#60A5FA" fill-opacity="0.51"/>
<rect class="cell" style="animation-delay:-2.61s" x="736" y="142" width="15" height="15" rx="2" fill="#60A5FA" fill-opacity="0.38"/>
<rect class="cell" style="animation-delay:-0.16s" x="736" y="160" width="15" height="15" rx="2" fill="#60A5FA" fill-opacity="0.63"/>
<rect class="cell" style="animation-delay:-0.86s" x="736" y="178" width="15" height="15" rx="2" fill="#60A5FA" fill-opacity="0.53"/>
<rect class="cell" style="animation-delay:-0.51s" x="736" y="196" width="15" height="15" rx="2" fill="#60A5FA" fill-opacity="0.28"/>
<rect class="cell" style="animation-delay:-0.69s" x="754" y="70" width="15" height="15" rx="2" fill="#60A5FA" fill-opacity="0.44"/>
<rect class="cell" style="animation-delay:-0.14s" x="754" y="88" width="15" height="15" rx="2" fill="#60A5FA" fill-opacity="0.37"/>
<rect class="cell" style="animation-delay:-1.45s" x="754" y="106" width="15" height="15" rx="2" fill="#60A5FA" fill-opacity="0.53"/>
<rect class="cell" style="animation-delay:-2.24s" x="754" y="124" width="15" height="15" rx="2" fill="#60A5FA" fill-opacity="0.62"/>
<rect class="cell" style="animation-delay:-3.43s" x="754" y="142" width="15" height="15" rx="2" fill="#60A5FA" fill-opacity="0.39"/>
<rect class="cell" style="animation-delay:-1.54s" x="754" y="160" width="15" height="15" rx="2" fill="#60A5FA" fill-opacity="0.25"/>
<rect class="cell" style="animation-delay:-1.56s" x="754" y="178" width="15" height="15" rx="2" fill="#60A5FA" fill-opacity="0.42"/>
<rect class="cell" style="animation-delay:-3.16s" x="754" y="196" width="15" height="15" rx="2" fill="#60A5FA" fill-opacity="0.32"/>
</g>
<g fill="#F5F5F7" font-family="'SFMono-Regular',Menlo,'DejaVu Sans Mono','Liberation Mono',Consolas,monospace" font-size="58" font-weight="700" text-anchor="middle"><g clip-path="url(#ac0)"><g class="roll" style="transform:translateY(-1234.2px);animation-duration:3.30s;animation-delay:0.70s"><text x="917.4" y="104.0">0</text><text x="917.4" y="169.0">1</text><text x="917.4" y="233.9">2</text><text x="917.4" y="298.9">3</text><text x="917.4" y="363.8">4</text><text x="917.4" y="428.8">5</text><text x="917.4" y="493.8">6</text><text x="917.4" y="558.7">7</text><text x="917.4" y="623.7">8</text><text x="917.4" y="688.6">9</text><text x="917.4" y="753.6">0</text><text x="917.4" y="818.6">1</text><text x="917.4" y="883.5">2</text><text x="917.4" y="948.5">3</text><text x="917.4" y="1013.4">4</text><text x="917.4" y="1078.4">5</text><text x="917.4" y="1143.4">6</text><text x="917.4" y="1208.3">7</text><text x="917.4" y="1273.3">8</text><text x="917.4" y="1338.2">9</text></g></g><g clip-path="url(#ac1)"><g class="roll" style="transform:translateY(-1818.9px);animation-duration:3.05s;animation-delay:0.76s"><text x="952.2" y="104.0">0</text><text x="952.2" y="169.0">1</text><text x="952.2" y="233.9">2</text><text x="952.2" y="298.9">3</text><text x="952.2" y="363.8">4</text><text x="952.2" y="428.8">5</text><text x="952.2" y="493.8">6</text><text x="952.2" y="558.7">7</text><text x="952.2" y="623.7">8</text><text x="952.2" y="688.6">9</text><text x="952.2" y="753.6">0</text><text x="952.2" y="818.6">1</text><text x="952.2" y="883.5">2</text><text x="952.2" y="948.5">3</text><text x="952.2" y="1013.4">4</text><text x="952.2" y="1078.4">5</text><text x="952.2" y="1143.4">6</text><text x="952.2" y="1208.3">7</text><text x="952.2" y="1273.3">8</text><text x="952.2" y="1338.2">9</text><text x="952.2" y="1403.2">0</text><text x="952.2" y="1468.2">1</text><text x="952.2" y="1533.1">2</text><text x="952.2" y="1598.1">3</text><text x="952.2" y="1663.0">4</text><text x="952.2" y="1728.0">5</text><text x="952.2" y="1793.0">6</text><text x="952.2" y="1857.9">7</text><text x="952.2" y="1922.9">8</text></g></g><text x="987.0" y="104">.</text><g clip-path="url(#ac3)"><g class="roll" style="transform:translateY(-1753.9px);animation-duration:2.55s;animation-delay:0.88s"><text x="1021.8" y="104.0">0</text><text x="1021.8" y="169.0">1</text><text x="1021.8" y="233.9">2</text><text x="1021.8" y="298.9">3</text><text x="1021.8" y="363.8">4</text><text x="1021.8" y="428.8">5</text><text x="1021.8" y="493.8">6</text><text x="1021.8" y="558.7">7</text><text x="1021.8" y="623.7">8</text><text x="1021.8" y="688.6">9</text><text x="1021.8" y="753.6">0</text><text x="1021.8" y="818.6">1</text><text x="1021.8" y="883.5">2</text><text x="1021.8" y="948.5">3</text><text x="1021.8" y="1013.4">4</text><text x="1021.8" y="1078.4">5</text><text x="1021.8" y="1143.4">6</text><text x="1021.8" y="1208.3">7</text><text x="1021.8" y="1273.3">8</text><text x="1021.8" y="1338.2">9</text><text x="1021.8" y="1403.2">0</text><text x="1021.8" y="1468.2">1</text><text x="1021.8" y="1533.1">2</text><text x="1021.8" y="1598.1">3</text><text x="1021.8" y="1663.0">4</text><text x="1021.8" y="1728.0">5</text><text x="1021.8" y="1793.0">6</text><text x="1021.8" y="1857.9">7</text></g></g><g clip-path="url(#ac4)"><g class="roll" style="transform:translateY(-1039.4px);animation-duration:2.30s;animation-delay:0.94s"><text x="1056.6" y="104.0">0</text><text x="1056.6" y="169.0">1</text><text x="1056.6" y="233.9">2</text><text x="1056.6" y="298.9">3</text><text x="1056.6" y="363.8">4</text><text x="1056.6" y="428.8">5</text><text x="1056.6" y="493.8">6</text><text x="1056.6" y="558.7">7</text><text x="1056.6" y="623.7">8</text><text x="1056.6" y="688.6">9</text><text x="1056.6" y="753.6">0</text><text x="1056.6" y="818.6">1</text><text x="1056.6" y="883.5">2</text><text x="1056.6" y="948.5">3</text><text x="1056.6" y="1013.4">4</text><text x="1056.6" y="1078.4">5</text><text x="1056.6" y="1143.4">6</text></g></g><text x="1091.4" y="104">%</text></g>
  <g class="in-up" style="animation-delay:1.2s"><text x="900" y="128" fill="#F5F5F7" font-size="13" text-anchor="start" font-family="'SFMono-Regular',Menlo,'DejaVu Sans Mono','Liberation Mono',Consolas,monospace" textLength="148.2" lengthAdjust="spacingAndGlyphs" >classifier accuracy</text></g>
<g fill="#FBBF24" font-family="'SFMono-Regular',Menlo,'DejaVu Sans Mono','Liberation Mono',Consolas,monospace" font-size="40" font-weight="700" text-anchor="middle"><g clip-path="url(#bc0)"><g class="roll" style="transform:translateY(-492.8px);animation-duration:2.30s;animation-delay:1.10s"><text x="912.0" y="186.0">0</text><text x="912.0" y="230.8">1</text><text x="912.0" y="275.6">2</text><text x="912.0" y="320.4">3</text><text x="912.0" y="365.2">4</text><text x="912.0" y="410.0">5</text><text x="912.0" y="454.8">6</text><text x="912.0" y="499.6">7</text><text x="912.0" y="544.4">8</text><text x="912.0" y="589.2">9</text><text x="912.0" y="634.0">0</text><text x="912.0" y="678.8">1</text></g></g><g clip-path="url(#bc1)"><g class="roll" style="transform:translateY(-1299.2px);animation-duration:2.05s;animation-delay:1.16s"><text x="936.0" y="186.0">0</text><text x="936.0" y="230.8">1</text><text x="936.0" y="275.6">2</text><text x="936.0" y="320.4">3</text><text x="936.0" y="365.2">4</text><text x="936.0" y="410.0">5</text><text x="936.0" y="454.8">6</text><text x="936.0" y="499.6">7</text><text x="936.0" y="544.4">8</text><text x="936.0" y="589.2">9</text><text x="936.0" y="634.0">0</text><text x="936.0" y="678.8">1</text><text x="936.0" y="723.6">2</text><text x="936.0" y="768.4">3</text><text x="936.0" y="813.2">4</text><text x="936.0" y="858.0">5</text><text x="936.0" y="902.8">6</text><text x="936.0" y="947.6">7</text><text x="936.0" y="992.4">8</text><text x="936.0" y="1037.2">9</text><text x="936.0" y="1082.0">0</text><text x="936.0" y="1126.8">1</text><text x="936.0" y="1171.6">2</text><text x="936.0" y="1216.4">3</text><text x="936.0" y="1261.2">4</text><text x="936.0" y="1306.0">5</text><text x="936.0" y="1350.8">6</text><text x="936.0" y="1395.6">7</text><text x="936.0" y="1440.4">8</text><text x="936.0" y="1485.2">9</text></g></g></g>
  <g class="in-up" style="animation-delay:1.3s"><text x="960" y="172" fill="#8B8BA7" font-size="12.5" text-anchor="start" font-family="'SFMono-Regular',Menlo,'DejaVu Sans Mono','Liberation Mono',Consolas,monospace" textLength="120.0" lengthAdjust="spacingAndGlyphs" >lineage-specific</text><text x="960" y="189" fill="#8B8BA7" font-size="12.5" text-anchor="start" font-family="'SFMono-Regular',Menlo,'DejaVu Sans Mono','Liberation Mono',Consolas,monospace" textLength="157.5" lengthAdjust="spacingAndGlyphs" >transcription factors</text></g>
</svg>
